<?xml version="1.0" standalone="no"?>
<!DOCTYPE svg PUBLIC "-//W3C//DTD SVG 20010904//EN"
 "http://www.w3.org/TR/2001/REC-SVG-20010904/DTD/svg10.dtd">
<svg version="1.0" xmlns="http://www.w3.org/2000/svg"
 width="275.000000pt" height="275.000000pt" viewBox="0 0 275.000000 275.000000"
 preserveAspectRatio="xMidYMid meet">
<metadata>
Created by potrace 1.11, written by Peter Selinger 2001-2013
</metadata>
<g transform="translate(0.000000,275.000000) scale(0.100000,-0.100000)"
fill="#000000" stroke="none">
<path d="M550 2727 c0 -2 7 -22 16 -43 45 -108 177 -511 219 -669 58 -217 77
-295 105 -418 16 -76 33 -154 36 -174 3 -19 7 -44 9 -53 2 -10 6 -40 10 -67 4
-26 8 -58 10 -71 2 -13 7 -53 11 -90 3 -37 9 -76 11 -87 9 -34 12 -438 5 -474
l-7 -34 -138 -23 c-305 -51 -457 -153 -457 -306 0 -84 56 -136 171 -158 140
-27 414 -29 554 -5 98 18 301 72 365 98 140 57 194 111 193 197 -2 93 -44 134
-173 169 -115 31 -144 34 -295 36 l-140 1 -1 185 c-1 212 -11 327 -49 569 -2
14 -6 45 -10 70 -9 68 -26 192 -30 218 -3 15 2 25 13 29 9 3 46 19 82 35 36
17 130 57 210 90 185 76 275 118 426 195 177 90 410 240 485 313 9 8 50 42 92
75 114 90 109 94 -93 95 -165 0 -282 7 -400 25 -14 2 -45 7 -70 10 -118 16
-699 148 -994 226 -43 11 -86 22 -95 24 -9 2 -28 6 -43 10 -16 4 -28 5 -28 2z"/>
</g>
</svg>
