<?xml version="1.0" encoding="iso-8859-1"?>
<!-- Generator: Adobe Illustrator 18.0.0, SVG Export Plug-In . SVG Version: 6.00 Build 0)  -->
<!DOCTYPE svg PUBLIC "-//W3C//DTD SVG 1.1//EN" "http://www.w3.org/Graphics/SVG/1.1/DTD/svg11.dtd">
<svg version="1.1" id="Capa_1" xmlns="http://www.w3.org/2000/svg" xmlns:xlink="http://www.w3.org/1999/xlink" x="0px" y="0px"
	 viewBox="0 0 414.784 414.784" style="enable-background:new 0 0 414.784 414.784;" xml:space="preserve">
<path d="M273.343,241.76l-21.741-17.282v-42.014c0-3.59-2.91-6.5-6.5-6.5h-19.194l0.046-45.34l36.479-13.471
	c4.738-1.749,8.511-5.238,10.623-9.825c2.113-4.587,2.313-9.723,0.563-14.46l-3.146-8.517c-2.729-7.394-9.856-12.36-17.735-12.36
	c-2.236,0-4.439,0.395-6.548,1.174l-6.733,2.485c-16.338,6.033-26.454,21.581-26.401,38.063c-0.052,0.329-0.092,5.959-0.092,5.959
	l-0.057,56.292h-6.788l-0.08-118.97l38.038-14.119c11.988-4.449,15.705-15.628,14.07-24.731C256.229,7.461,247.466,0,236.838,0
	c-0.609,0-1.232,0.023-1.853,0.07c-4.384,0.331-8.732,1.288-12.926,2.845c-10.61,3.938-19.257,11.327-24.347,20.806
	c-2.962,5.517-4.527,11.362-4.669,17.177c-0.003,0.088,0.076,135.066,0.076,135.066h-6.922l-0.069-70.293
	c0,0-0.096-7.742-0.248-8.294c-0.416-4.517-1.601-8.979-3.555-13.221c-4.514-9.799-12.573-17.255-22.694-20.992l-6.732-2.486
	c-2.109-0.778-4.312-1.174-6.547-1.174c-7.879,0-15.007,4.968-17.737,12.36l-3.146,8.519c-3.61,9.779,1.407,20.674,11.186,24.284
	l36.487,13.474l0.057,57.823h-18.422c-3.59,0-6.5,2.91-6.5,6.5v44.789h-1.423c-3.59,0-6.5,2.91-6.5,6.5v115.964
	c0,3.59,2.91,6.5,6.5,6.5h1.423v15.544c0,23.724,19.3,43.023,43.022,43.023h53.804c3.59,0,6.5-2.91,6.5-6.5v-29.077
	c21.956-3.163,38.885-22.094,38.885-44.911v-57.01C290.487,263.368,284.237,250.419,273.343,241.76z M243.96,87.845l6.733-2.485
	c0.663-0.245,1.352-0.369,2.045-0.369c2.461,0,4.687,1.552,5.54,3.863l3.146,8.518c0.547,1.48,0.484,3.084-0.176,4.517
	c-0.659,1.434-1.838,2.523-3.318,3.069l-31.697,11.705C224.829,104.414,231.893,92.302,243.96,87.845z M209.166,29.871
	c3.592-6.688,9.777-11.933,17.417-14.769c3.054-1.133,6.21-1.829,9.382-2.069c0.296-0.022,0.588-0.033,0.873-0.033
	c5.292,0,7.868,3.844,8.514,7.441c0.659,3.668-0.518,8.286-5.798,10.246l-33.471,12.424
	C205.825,38.699,206.863,34.158,209.166,29.871z M172.862,104.18l-31.704-11.708c-3.055-1.128-4.622-4.531-3.494-7.586l3.146-8.518
	c0.854-2.312,3.081-3.864,5.542-3.864c0.693,0,1.382,0.124,2.044,0.369l6.731,2.486c6.864,2.534,12.33,7.59,15.391,14.236
	C172.651,94.226,173.439,99.241,172.862,104.18z M238.602,188.964v9.438h-77.326v-9.438H238.602z M153.353,343.217V240.253h29.372
	v86.261c0,9.21-7.493,16.703-16.703,16.703H153.353z M191.298,401.784c-16.555,0-30.022-13.469-30.022-30.023v-15.544h4.746
	c16.378,0,29.703-13.325,29.703-29.703v-92.761c0-3.59-2.91-6.5-6.5-6.5h-27.949v-15.852h77.326v190.383H191.298z M251.602,241.084
	l8.966,7.127v114.53c-2.77,1.512-5.783,2.631-8.966,3.282V241.084z M277.487,334.296c0,5.583-1.42,10.841-3.919,15.432v-87.91
	c2.544,4.676,3.919,9.965,3.919,15.469V334.296z"/>
<g>
</g>
<g>
</g>
<g>
</g>
<g>
</g>
<g>
</g>
<g>
</g>
<g>
</g>
<g>
</g>
<g>
</g>
<g>
</g>
<g>
</g>
<g>
</g>
<g>
</g>
<g>
</g>
<g>
</g>
</svg>
