<?xml version="1.0" encoding="UTF-8" standalone="no"?>
<!DOCTYPE svg PUBLIC "-//W3C//DTD SVG 1.1//EN" "http://www.w3.org/Graphics/SVG/1.1/DTD/svg11.dtd">
<svg version="1.1" xmlns="http://www.w3.org/2000/svg" xmlns:xlink="http://www.w3.org/1999/xlink" preserveAspectRatio="xMidYMid meet" viewBox="239.84463913983745 161.33454145662273 204.8555858154284 279.13134623979283" width="200.86" height="275.13"><defs><path d="M247.64 426L266.23 433.01L294.96 434.29L320 430.7L347.66 424.53L366.18 412.83L368.62 404.53L363.25 395.26L341.79 387.46L307.64 387.46L273.98 391.36L248.62 406L247.64 424.53" id="e1Qd3eQ39m"></path><path d="M297.74 415L287.61 416.87C282.74 418.59 279.29 419.89 277.27 420.78C272.18 423.01 267.93 425.61 264.54 428.57C270.72 429.97 276.27 430.71 281.19 430.79C286.1 430.87 290.88 430.87 295.53 430.79L297.74 415Z" id="hqtbost8L"></path><path d="M317.11 413.52C324.06 413.72 326.84 413.69 333.57 414.86C338.06 415.64 342.76 417.59 347.66 420.71C345.97 421.26 344.31 421.81 342.66 422.37C338.63 423.75 334.34 424.87 329.81 426.11C323.41 427.85 314.74 429.41 303.78 430.79L305.86 414.08C308.73 413.58 312.48 413.39 317.11 413.52Z" id="mMvJyBvua"></path><path d="M290.03 416.63L289.25 416.84L288.49 417.03L287.77 417.23L287.07 417.42L286.4 417.6L285.76 417.78L285.15 417.95L284.57 418.12L284.01 418.29L283.48 418.45L282.98 418.6L282.51 418.76L282.07 418.9L281.65 419.04L281.26 419.18L280.9 419.31L280.57 419.44L280.27 419.56L279.35 419.95L278.44 420.36L277.53 420.78L276.62 421.22L275.72 421.67L274.83 422.13L273.94 422.61L273.06 423.1L272.19 423.61L271.31 424.13L270.45 424.67L269.59 425.22L268.73 425.78L267.88 426.36L267.04 426.96L266.2 427.57L265.37 428.19L264.54 428.83L258.02 427.5L258.34 427.14L258.67 426.77L259.01 426.4L259.37 426.04L259.75 425.67L260.14 425.31L260.55 424.95L260.97 424.59L261.4 424.23L261.86 423.87L262.32 423.52L262.81 423.16L263.3 422.81L263.82 422.46L264.34 422.1L264.89 421.75L265.45 421.4L266.02 421.06L266.86 420.56L267.63 420.1L268.34 419.68L269 419.29L269.62 418.94L270.2 418.61L270.74 418.3L271.26 418.02L271.76 417.75L272.25 417.5L272.73 417.26L273.21 417.03L273.69 416.8L274.19 416.57L274.71 416.33L275.25 416.09L275.83 415.85L276.45 415.58L277.59 415.11L278.75 414.66L279.93 414.23L281.12 413.82L282.33 413.42L283.56 413.05L284.8 412.7L286.06 412.37L287.33 412.06L288.62 411.76L289.93 411.49L291.25 411.24L292.59 411.01L293.95 410.8L295.32 410.61L296.71 410.43L298.11 410.28L299.53 410.15L298.62 415L290.03 416.63ZM318.38 408.83L319.24 408.85L320.08 408.87L320.9 408.9L321.7 408.93L322.48 408.97L323.24 409.01L323.98 409.06L324.7 409.12L325.4 409.18L326.08 409.25L326.74 409.32L327.38 409.4L328 409.48L328.6 409.57L329.18 409.67L330.01 409.81L330.8 409.96L331.56 410.09L332.28 410.23L332.98 410.36L333.65 410.5L334.3 410.64L334.93 410.78L335.55 410.92L336.17 411.08L336.77 411.23L337.38 411.4L337.99 411.58L338.61 411.76L339.24 411.96L339.88 412.18L340.54 412.4L341.23 412.65L341.94 412.91L342.68 413.19L343.46 413.48L343.99 413.69L344.52 413.91L345.06 414.12L345.59 414.34L346.12 414.57L346.66 414.8L347.19 415.04L347.72 415.28L348.26 415.52L348.79 415.77L349.33 416.02L349.86 416.28L350.4 416.54L350.93 416.81L351.47 417.08L352.01 417.36L352.55 417.64L353.08 417.92L353.62 418.21L354.16 418.51L354.7 418.81L347.66 420.89L347.41 420.71L347.15 420.54L346.89 420.36L346.62 420.19L346.34 420.01L346.06 419.84L345.78 419.68L345.49 419.51L345.19 419.35L344.89 419.18L344.58 419.02L344.27 418.86L343.95 418.71L343.63 418.55L343.3 418.4L342.97 418.25L342.63 418.1L342.28 417.95L341.93 417.81L341.58 417.66L341.21 417.52L340.7 417.32L340.23 417.14L339.81 416.97L339.42 416.81L339.07 416.67L338.74 416.54L338.43 416.42L338.13 416.3L337.84 416.2L337.55 416.1L337.25 416.01L336.93 415.91L336.6 415.82L336.23 415.73L335.84 415.64L335.4 415.55L334.92 415.45L334.38 415.35L333.78 415.24L333.12 415.12L332.39 415L331.64 414.87L330.96 414.75L330.33 414.65L329.74 414.55L329.19 414.47L328.66 414.39L328.17 414.32L327.68 414.26L327.21 414.2L326.73 414.15L326.25 414.11L325.76 414.07L325.24 414.04L324.7 414L324.13 413.97L323.51 413.95L322.84 413.92L322.12 413.9L321.33 413.88L320.48 413.85L319.55 413.83L318.89 413.82L318.24 413.81L317.58 413.8L316.92 413.8L316.25 413.8L315.58 413.8L314.91 413.81L314.23 413.82L313.55 413.84L312.87 413.86L312.18 413.88L311.49 413.9L310.79 413.94L310.09 413.97L309.39 414.01L308.68 414.05L307.97 414.09L307.26 414.14L306.54 414.2L305.82 414.25L305.1 414.31L305.1 409.35L312.8 408.86L313.78 408.84L314.74 408.82L315.68 408.82L316.6 408.82L317.5 408.82L318.38 408.83Z" id="f2R2eVroFs"></path><path d="M325.52 384.29L326.3 384.3L327.08 384.31L327.86 384.33L328.62 384.35L329.38 384.37L330.13 384.4L330.87 384.44L331.6 384.47L332.33 384.51L333.05 384.56L333.76 384.6L334.46 384.65L335.15 384.71L335.84 384.77L336.52 384.83L337.19 384.9L337.86 384.97L338.52 385.04L339.17 385.12L339.81 385.2L340.44 385.29L341.07 385.38L341.69 385.47L342.3 385.57L342.9 385.67L343.49 385.77L344.08 385.88L344.66 385.99L345.24 386.11L345.8 386.22L346.36 386.35L346.91 386.47L347.45 386.61L347.98 386.74L348.51 386.88L349.03 386.98L349.54 387.08L350.04 387.19L350.54 387.29L351.04 387.4L351.52 387.51L352.01 387.62L352.48 387.73L352.95 387.84L353.41 387.95L353.87 388.07L354.32 388.18L354.76 388.3L355.2 388.42L355.63 388.54L356.06 388.66L356.48 388.79L356.89 388.91L357.3 389.04L357.7 389.16L358.09 389.29L358.48 389.42L358.87 389.55L359.24 389.69L359.61 389.82L359.98 389.96L360.34 390.09L360.69 390.23L361.03 390.37L361.37 390.51L361.71 390.65L362.03 390.8L362.36 390.94L362.67 391.09L362.98 391.24L363.28 391.39L363.58 391.54L363.87 391.69L364.15 391.84L364.43 392L364.7 392.15L364.97 392.31L365.23 392.47L365.49 392.64L365.74 392.8L365.99 392.97L366.23 393.14L366.46 393.32L366.69 393.49L366.91 393.67L367.13 393.85L367.35 394.04L367.55 394.22L367.76 394.41L367.95 394.6L368.14 394.8L368.33 394.99L368.51 395.19L368.68 395.39L368.85 395.6L369.02 395.8L369.18 396.01L369.33 396.22L369.48 396.43L369.62 396.65L369.76 396.87L369.89 397.09L370.02 397.31L370.14 397.53L370.25 397.76L370.36 397.99L370.47 398.23L370.57 398.46L370.66 398.7L370.75 398.94L370.83 399.18L370.91 399.43L370.98 399.67L371.05 399.92L371.11 400.18L371.22 400.59L371.32 401L371.42 401.41L371.5 401.81L371.58 402.22L371.64 402.62L371.7 403.02L371.75 403.41L371.79 403.81L371.83 404.2L371.85 404.59L371.87 404.98L371.87 405.36L371.87 405.75L371.86 406.13L371.84 406.5L371.81 406.88L371.78 407.25L371.73 407.63L371.68 408L371.61 408.36L371.54 408.73L371.46 409.09L371.37 409.45L371.28 409.81L371.17 410.17L371.06 410.52L370.93 410.87L370.8 411.22L370.66 411.57L370.51 411.91L370.36 412.25L370.19 412.59L370.01 412.93L369.83 413.27L369.64 413.6L369.44 413.93L369.23 414.26L369.01 414.59L368.78 414.91L368.43 415.39L368.05 415.86L367.65 416.32L367.23 416.77L366.8 417.2L366.35 417.63L365.88 418.05L365.4 418.46L364.91 418.86L364.4 419.25L363.88 419.63L363.35 420L362.81 420.37L362.26 420.72L361.71 421.07L361.14 421.4L360.57 421.73L360 422.05L359.42 422.37L358.83 422.67L358.25 422.97L357.66 423.25L357.07 423.54L356.49 423.81L355.9 424.07L355.32 424.33L354.74 424.59L354.16 424.83L353.59 425.07L353.03 425.3L352.47 425.52L351.93 425.74L351.39 425.95L350.86 426.16L350.34 426.36L349.84 426.55L349.34 426.74L348.86 426.92L348.4 427.1L347.95 427.27L347.65 427.39L347.32 427.51L346.97 427.63L346.59 427.76L346.19 427.89L345.76 428.03L345.31 428.17L344.84 428.31L344.34 428.46L343.82 428.61L343.27 428.77L342.7 428.93L342.1 429.1L341.48 429.27L340.84 429.44L340.17 429.62L339.48 429.8L338.77 429.99L338.03 430.18L337.26 430.38L336.48 430.58L335.66 430.78L334.83 430.99L333.97 431.2L333.08 431.42L332.17 431.64L331.24 431.86L330.28 432.09L329.3 432.33L328.3 432.57L327.27 432.81L326.21 433.06L325.13 433.31L324.03 433.56L322.91 433.82L321.75 434.08L320.58 434.35L319.38 434.62L318.16 434.9L316.91 435.18L315.98 435.31L315.06 435.43L314.14 435.54L313.22 435.66L312.31 435.77L311.41 435.87L310.51 435.98L309.61 436.08L308.72 436.17L307.83 436.27L306.95 436.35L306.07 436.44L305.2 436.52L304.33 436.6L303.46 436.68L302.6 436.75L301.75 436.82L300.9 436.88L300.05 436.95L299.21 437L298.38 437.06L297.55 437.11L296.72 437.16L295.9 437.2L295.08 437.24L294.27 437.28L293.46 437.31L292.66 437.35L291.86 437.37L291.06 437.4L290.28 437.42L289.49 437.43L288.71 437.45L287.94 437.46L287.16 437.46L286.4 437.47L285.64 437.47L284.88 437.46L284.13 437.45L283.38 437.44L282.64 437.43L281.89 437.41L281.15 437.39L280.41 437.36L279.66 437.34L278.92 437.31L278.18 437.27L277.44 437.23L276.7 437.19L275.96 437.14L275.22 437.09L274.48 437.04L273.74 436.99L273 436.93L272.26 436.86L271.52 436.8L270.79 436.73L270.05 436.66L269.31 436.58L268.58 436.5L267.84 436.42L267.11 436.33L266.38 436.24L265.64 436.14L264.91 436.05L264.18 435.95L263.45 435.84L262.71 435.73L261.98 435.62L261.25 435.51L260.52 435.39L259.79 435.27L259.06 435.14L258.34 435.01L257.61 434.88L256.88 434.75L256.15 434.61L255.43 434.47L254.7 434.32L253.97 434.17L253.56 434.07L253.15 433.97L252.75 433.86L252.36 433.75L251.97 433.63L251.59 433.51L251.22 433.38L250.85 433.25L250.49 433.11L250.14 432.97L249.79 432.83L249.45 432.68L249.11 432.53L248.79 432.37L248.46 432.21L248.15 432.04L247.84 431.87L247.54 431.69L247.25 431.51L246.96 431.33L246.68 431.14L246.4 430.94L246.14 430.74L245.87 430.54L245.62 430.33L245.37 430.12L245.13 429.9L244.89 429.68L244.67 429.45L244.44 429.22L244.23 428.99L244.02 428.75L243.82 428.51L243.62 428.26L243.44 428L243.25 427.75L243.08 427.48L242.91 427.22L242.75 426.95L242.59 426.67L242.44 426.39L242.3 426.11L242.17 425.82L242.04 425.52L241.91 425.22L241.8 424.92L241.69 424.61L241.59 424.3L241.49 423.99L241.4 423.66L241.32 423.34L241.24 423.01L241.17 422.67L241.11 422.34L241.06 421.99L241.01 421.64L240.96 421.29L240.93 420.93L240.9 420.57L240.87 420.21L240.86 419.84L240.85 419.46L240.84 419.08L240.85 418.7L240.86 418.31L240.87 417.91L240.9 417.52L240.93 417.11L240.96 416.71L241.01 416.3L241.06 415.88L241.11 415.46L241.18 415.03L241.25 414.61L241.32 414.17L241.41 413.73L241.5 413.29L241.59 412.84L241.69 412.39L241.8 411.93L241.95 411.57L242.1 411.21L242.26 410.86L242.42 410.5L242.6 410.14L242.78 409.79L242.98 409.44L243.18 409.08L243.39 408.73L243.6 408.38L243.83 408.04L244.06 407.69L244.31 407.34L244.56 407L244.81 406.65L245.08 406.31L245.36 405.97L245.64 405.63L245.93 405.29L246.23 404.96L246.54 404.62L246.86 404.28L247.18 403.95L247.52 403.62L247.86 403.29L248.21 402.96L248.56 402.63L248.93 402.3L249.31 401.98L249.69 401.65L250.08 401.33L250.48 401L250.89 400.68L251.3 400.36L251.73 400.04L252.16 399.73L252.6 399.41L253.05 399.09L253.51 398.78L253.97 398.47L254.45 398.16L254.93 397.85L255.43 397.55L255.94 397.25L256.45 396.95L256.98 396.65L257.52 396.36L258.07 396.08L258.62 395.79L259.19 395.51L259.77 395.23L260.36 394.96L260.96 394.69L261.57 394.42L262.19 394.16L262.82 393.9L263.46 393.64L264.11 393.38L264.77 393.13L265.45 392.89L266.13 392.64L266.82 392.4L267.52 392.16L268.24 391.93L268.96 391.7L269.7 391.47L270.44 391.25L271.19 391.02L271.96 390.81L272.74 390.59L273.52 390.38L274.32 390.17L275.12 389.97L275.94 389.77L276.77 389.57L277.61 389.37L278.46 389.18L279.31 389L280.18 388.81L281.06 388.63L282.25 388.43L283.42 388.23L284.59 388.03L285.75 387.85L286.9 387.66L288.04 387.48L289.17 387.31L290.3 387.14L291.41 386.98L292.52 386.82L293.61 386.66L294.7 386.51L295.78 386.37L296.85 386.23L297.9 386.09L298.96 385.96L300 385.84L301.03 385.72L302.05 385.6L303.07 385.49L304.07 385.38L305.07 385.28L306.06 385.19L307.04 385.1L308.01 385.01L308.97 384.93L309.92 384.85L310.86 384.78L311.79 384.71L312.72 384.65L313.63 384.59L314.54 384.54L315.44 384.49L316.33 384.45L317.2 384.41L318.07 384.38L318.94 384.35L319.79 384.33L320.63 384.31L321.47 384.3L322.29 384.29L323.11 384.28L323.92 384.28L324.72 384.28L325.52 384.29ZM320.5 391.07L319.8 391.07L319.08 391.08L318.36 391.1L317.64 391.11L316.9 391.14L316.16 391.16L315.41 391.19L314.65 391.22L313.89 391.26L313.11 391.29L312.33 391.34L311.54 391.38L310.75 391.43L309.94 391.49L309.13 391.54L308.31 391.6L307.48 391.67L306.65 391.74L305.8 391.81L304.95 391.88L304.1 391.96L303.23 392.05L302.36 392.13L301.48 392.22L300.59 392.31L299.69 392.41L298.79 392.51L297.87 392.62L296.95 392.72L296.03 392.84L295.09 392.95L294.15 393.07L293.2 393.19L292.24 393.32L291.27 393.45L290.3 393.58L289.32 393.72L288.33 393.86L287.33 394L286.33 394.15L285.32 394.3L284.57 394.44L283.82 394.57L283.09 394.71L282.37 394.86L281.65 395L280.95 395.15L280.25 395.3L279.56 395.45L278.88 395.61L278.21 395.76L277.55 395.92L276.9 396.09L276.25 396.25L275.62 396.42L274.99 396.59L274.37 396.76L273.76 396.93L273.16 397.11L272.57 397.29L271.99 397.47L271.42 397.66L270.85 397.84L270.3 398.03L269.75 398.23L269.21 398.42L268.68 398.62L268.16 398.82L267.65 399.02L267.15 399.22L266.65 399.43L266.17 399.64L265.69 399.85L265.22 400.06L264.77 400.28L264.32 400.5L263.88 400.72L263.44 400.94L263.02 401.17L262.61 401.4L262.2 401.63L261.8 401.86L261.41 402.1L261.03 402.33L260.65 402.57L260.28 402.8L259.92 403.04L259.57 403.28L259.22 403.52L258.88 403.76L258.54 404L258.22 404.24L257.9 404.49L257.58 404.73L257.28 404.98L256.98 405.22L256.69 405.47L256.4 405.72L256.13 405.96L255.86 406.21L255.59 406.46L255.34 406.72L255.09 406.97L254.85 407.22L254.61 407.47L254.38 407.73L254.16 407.99L253.95 408.24L253.74 408.5L253.54 408.76L253.35 409.02L253.16 409.28L252.99 409.54L252.82 409.8L252.65 410.07L252.49 410.33L252.34 410.59L252.2 410.86L252.07 411.13L251.94 411.39L251.81 411.66L251.72 412L251.63 412.34L251.55 412.67L251.47 413L251.4 413.33L251.34 413.65L251.28 413.97L251.23 414.29L251.18 414.6L251.14 414.91L251.1 415.22L251.07 415.52L251.04 415.82L251.02 416.12L251.01 416.41L251 416.7L251 416.99L251 417.27L251.01 417.55L251.02 417.83L251.04 418.1L251.07 418.37L251.1 418.63L251.13 418.9L251.18 419.16L251.22 419.41L251.28 419.67L251.34 419.91L251.4 420.16L251.47 420.4L251.55 420.64L251.63 420.88L251.72 421.11L251.81 421.34L251.91 421.56L252.01 421.79L252.12 422.01L252.24 422.22L252.36 422.43L252.49 422.64L252.62 422.85L252.76 423.05L252.9 423.25L253.05 423.44L253.21 423.64L253.37 423.82L253.53 424.01L253.71 424.19L253.88 424.37L254.07 424.54L254.26 424.72L254.45 424.88L254.65 425.05L254.86 425.21L255.07 425.37L255.29 425.52L255.51 425.68L255.74 425.82L255.97 425.97L256.21 426.11L256.46 426.25L256.71 426.38L256.97 426.51L257.23 426.64L257.5 426.77L257.77 426.89L258.05 427.01L258.34 427.12L258.63 427.23L258.92 427.34L259.23 427.44L259.53 427.54L259.85 427.64L260.17 427.74L260.49 427.83L260.82 427.91L261.16 428L261.5 428.08L261.85 428.16L262.2 428.23L262.82 428.34L263.44 428.45L264.06 428.56L264.68 428.66L265.3 428.76L265.92 428.86L266.54 428.96L267.17 429.05L267.79 429.14L268.41 429.23L269.03 429.31L269.66 429.39L270.28 429.48L270.91 429.55L271.53 429.63L272.16 429.7L272.78 429.77L273.41 429.84L274.04 429.9L274.66 429.96L275.29 430.02L275.92 430.08L276.55 430.14L277.18 430.19L277.81 430.24L278.44 430.28L279.07 430.33L279.7 430.37L280.33 430.41L280.96 430.45L281.59 430.48L282.22 430.51L282.86 430.54L283.49 430.57L284.12 430.59L284.76 430.61L285.39 430.63L286.03 430.64L286.66 430.66L287.3 430.67L288.23 430.68L289.13 430.69L290 430.7L290.83 430.71L291.63 430.72L292.41 430.73L293.16 430.73L293.88 430.73L294.59 430.73L295.27 430.73L295.93 430.72L296.58 430.71L297.21 430.7L297.83 430.69L298.44 430.67L299.05 430.65L299.64 430.62L300.23 430.6L300.82 430.56L301.4 430.53L301.99 430.49L302.58 430.44L303.17 430.39L303.78 430.34L304.39 430.28L305.01 430.22L305.64 430.15L306.29 430.08L306.95 430L307.64 429.92L308.34 429.83L309.07 429.73L309.82 429.63L310.59 429.52L311.4 429.41L312.23 429.29L313.1 429.16L314 429.03L314.94 428.89L315.91 428.74L316.57 428.64L317.23 428.54L317.89 428.43L318.54 428.32L319.19 428.21L319.84 428.1L320.49 427.98L321.14 427.87L321.78 427.75L322.42 427.62L323.06 427.5L323.69 427.37L324.33 427.25L324.96 427.11L325.59 426.98L326.21 426.85L326.84 426.71L327.46 426.57L328.08 426.43L328.7 426.28L329.31 426.13L329.93 425.99L330.54 425.83L331.15 425.68L331.75 425.52L332.36 425.37L332.96 425.21L333.56 425.04L334.15 424.88L334.75 424.71L335.34 424.54L335.93 424.37L336.52 424.2L337.1 424.02L337.69 423.84L338.27 423.66L338.84 423.48L339.42 423.29L339.99 423.1L340.57 422.91L341.27 422.69L341.96 422.46L342.64 422.24L343.31 422.01L343.97 421.78L344.61 421.56L345.25 421.33L345.88 421.1L346.49 420.87L347.09 420.64L347.69 420.41L348.27 420.18L348.84 419.95L349.4 419.71L349.95 419.48L350.49 419.25L351.02 419.01L351.54 418.78L352.04 418.54L352.54 418.31L353.02 418.07L353.5 417.84L353.96 417.6L354.41 417.36L354.85 417.12L355.29 416.88L355.71 416.65L356.11 416.41L356.51 416.17L356.9 415.92L357.28 415.68L357.64 415.44L358 415.2L358.34 414.95L358.67 414.71L359 414.47L359.31 414.22L359.61 413.98L359.9 413.73L360.18 413.48L360.44 413.24L360.7 412.99L360.95 412.74L361.19 412.48L361.41 412.23L361.63 411.98L361.84 411.72L362.03 411.46L362.22 411.2L362.4 410.94L362.56 410.67L362.72 410.41L362.86 410.14L363 409.87L363.12 409.6L363.24 409.33L363.34 409.06L363.44 408.78L363.52 408.51L363.59 408.23L363.66 407.95L363.71 407.67L363.75 407.38L363.79 407.1L363.81 406.81L363.82 406.53L363.82 406.24L363.81 405.95L363.8 405.65L363.77 405.36L363.73 405.06L363.68 404.77L363.62 404.47L363.55 404.17L363.47 403.86L363.38 403.56L363.28 403.25L363.17 402.95L363.05 402.64L362.91 402.33L362.83 402.17L362.73 402.01L362.63 401.85L362.53 401.7L362.43 401.54L362.32 401.39L362.21 401.23L362.09 401.08L361.98 400.93L361.85 400.78L361.73 400.63L361.6 400.49L361.46 400.34L361.33 400.2L361.18 400.05L361.04 399.91L360.89 399.77L360.74 399.63L360.58 399.49L360.42 399.35L360.26 399.21L360.09 399.07L359.92 398.94L359.75 398.8L359.57 398.67L359.39 398.54L359.2 398.41L359.02 398.28L358.82 398.15L358.63 398.02L358.43 397.9L358.22 397.77L358.02 397.65L357.81 397.52L357.59 397.4L357.37 397.28L357.15 397.16L356.92 397.04L356.7 396.93L356.46 396.81L356.23 396.69L355.98 396.58L355.73 396.47L355.48 396.35L355.22 396.24L354.96 396.13L354.69 396.02L354.42 395.92L354.14 395.81L353.85 395.7L353.56 395.6L353.27 395.49L352.97 395.39L352.66 395.29L352.35 395.19L352.03 395.09L351.71 394.99L351.39 394.89L351.05 394.79L350.72 394.7L350.37 394.6L350.03 394.51L349.67 394.42L349.32 394.33L348.95 394.23L348.58 394.14L348.21 394.06L347.83 393.97L347.45 393.88L347.06 393.8L346.66 393.71L346.26 393.63L345.86 393.55L345.45 393.46L345.03 393.38L344.61 393.3L344.18 393.23L343.75 393.15L343.32 393.07L342.87 393L342.42 392.89L341.97 392.79L341.51 392.7L341.04 392.6L340.56 392.51L340.08 392.42L339.59 392.33L339.1 392.25L338.6 392.17L338.09 392.09L337.57 392.02L337.05 391.95L336.52 391.88L335.99 391.81L335.45 391.75L334.9 391.69L334.35 391.63L333.79 391.57L333.22 391.52L332.65 391.47L332.06 391.42L331.48 391.38L330.88 391.34L330.28 391.3L329.68 391.27L329.07 391.23L328.45 391.2L327.82 391.18L327.19 391.15L326.55 391.13L325.9 391.11L325.25 391.1L324.59 391.08L323.93 391.07L323.25 391.07L322.58 391.06L321.89 391.06L321.2 391.06L320.5 391.07Z" id="a2YjnNjhaV"></path><path d="M300.2 399.73C302.36 385.47 303.35 371.94 303.16 359.11C302.97 346.28 301.98 333.69 300.2 321.32C299.12 309.34 296.58 294.44 292.58 276.62C288.59 258.8 283.06 238.06 275.99 214.41C273.05 204.99 270.08 195.94 267.09 187.27C264.09 178.59 261.07 170.28 258.02 162.33C274.92 166.74 290.59 170.63 305.03 174.01C326.69 179.07 323.92 178.88 344.66 183.22C365.4 187.56 361.4 187.49 378.45 189.98C395.5 192.48 401.34 192.75 412.86 193.21C424.38 193.67 424.27 193.67 434.06 193.21C440.59 192.9 442.93 194.11 441.09 196.84L412.86 220.17L387.98 235.78C378.91 240.82 369.54 245.64 359.87 250.23C345.35 257.13 344.31 256.9 328.87 263.37C318.58 267.68 309.02 271.91 300.2 276.06L306.55 321.32C308.42 333.4 309.49 345.85 309.77 358.67C310.2 377.91 308.99 380.89 307.47 398.28C306.47 409.87 305.22 420.9 303.72 431.36L294.96 431.36L300.2 399.73Z" id="bmN7H1aFP"></path><path d="M283.89 213.85C288.24 228.37 293.24 246.27 298.88 267.57L345.88 250.46C361.92 244.12 376.95 236.78 390.96 228.43C404.97 220.09 417.84 210.73 429.57 200.38C420.41 200.67 406.67 199.64 388.34 197.29C360.85 193.77 349.92 191.47 320 185.12C300.05 180.89 283.34 176.87 269.85 173.06C274.86 185.73 279.54 199.33 283.89 213.85Z" id="d1zKbVXka2"></path></defs><g><g><use xlink:href="#e1Qd3eQ39m" opacity="1" fill="#ffffff" fill-opacity="1"></use></g><g><use xlink:href="#hqtbost8L" opacity="1" fill="#996600" fill-opacity="1"></use></g><g><use xlink:href="#mMvJyBvua" opacity="1" fill="#996600" fill-opacity="1"></use></g><g><use xlink:href="#f2R2eVroFs" opacity="1" fill="#000000" fill-opacity="1"></use></g><g><use xlink:href="#a2YjnNjhaV" opacity="1" fill="#000000" fill-opacity="1"></use></g><g><use xlink:href="#bmN7H1aFP" opacity="1" fill="#000000" fill-opacity="1"></use></g><g><use xlink:href="#d1zKbVXka2" opacity="1" fill="#00ff09" fill-opacity="1"></use></g></g></svg>