<svg xmlns="http://www.w3.org/2000/svg" xmlns:xlink="http://www.w3.org/1999/xlink" viewBox="239.845 161.335 204.856 279.131">
  <defs>
    <path d="M247.64 426l18.59 7.01 28.73 1.28L320 430.7l27.66-6.17 18.52-11.7 2.44-8.3-5.37-9.27-21.46-7.8h-34.15l-33.66 3.9L248.62 406l-.98 18.53" id="a"/>
    <path d="M297.74 415l-10.13 1.87c-4.87 1.72-8.32 3.02-10.34 3.91-5.09 2.23-9.34 4.83-12.73 7.79 6.18 1.4 11.73 2.14 16.65 2.22 4.91.08 9.69.08 14.34 0l2.21-15.79z" id="b"/>
    <path d="M317.11 413.52c6.95.2 9.73.17 16.46 1.34 4.49.78 9.19 2.73 14.09 5.85-1.69.55-3.35 1.1-5 1.66-4.03 1.38-8.32 2.5-12.85 3.74-6.4 1.74-15.07 3.3-26.03 4.68l2.08-16.71c2.87-.5 6.62-.69 11.25-.56z" id="c"/>
    <path d="M290.03 416.63l-.78.21-.76.19-.72.2-.7.19-.67.18-.64.18-.61.17-.58.17-.56.17-.53.16-.5.15-.47.16-.44.14-.42.14-.39.14-.36.13-.33.13-.3.12-.92.39-.91.41-.91.42-.91.44-.9.45-.89.46-.89.48-.88.49-.87.51-.88.52-.86.54-.86.55-.86.56-.85.58-.84.6-.84.61-.83.62-.83.64-6.52-1.33.32-.36.33-.37.34-.37.36-.36.38-.37.39-.36.41-.36.42-.36.43-.36.46-.36.46-.35.49-.36.49-.35.52-.35.52-.36.55-.35.56-.35.57-.34.84-.5.77-.46.71-.42.66-.39.62-.35.58-.33.54-.31.52-.28.5-.27.49-.25.48-.24.48-.23.48-.23.5-.23.52-.24.54-.24.58-.24.62-.27 1.14-.47 1.16-.45 1.18-.43 1.19-.41 1.21-.4 1.23-.37 1.24-.35 1.26-.33 1.27-.31 1.29-.3 1.31-.27 1.32-.25 1.34-.23 1.36-.21 1.37-.19 1.39-.18 1.4-.15 1.42-.13-.91 4.85-8.59 1.63zm28.35-7.8l.86.02.84.02.82.03.8.03.78.04.76.04.74.05.72.06.7.06.68.07.66.07.64.08.62.08.6.09.58.1.83.14.79.15.76.13.72.14.7.13.67.14.65.14.63.14.62.14.62.16.6.15.61.17.61.18.62.18.63.2.64.22.66.22.69.25.71.26.74.28.78.29.53.21.53.22.54.21.53.22.53.23.54.23.53.24.53.24.54.24.53.25.54.25.53.26.54.26.53.27.54.27.54.28.54.28.53.28.54.29.54.3.54.3-7.04 2.08-.25-.18-.26-.17-.26-.18-.27-.17-.28-.18-.28-.17-.28-.16-.29-.17-.3-.16-.3-.17-.31-.16-.31-.16-.32-.15-.32-.16-.33-.15-.33-.15-.34-.15-.35-.15-.35-.14-.35-.15-.37-.14-.51-.2-.47-.18-.42-.17-.39-.16-.35-.14-.33-.13-.31-.12-.3-.12-.29-.1-.29-.1-.3-.09-.32-.1-.33-.09-.37-.09-.39-.09-.44-.09-.48-.1-.54-.1-.6-.11-.66-.12-.73-.12-.75-.13-.68-.12-.63-.1-.59-.1-.55-.08-.53-.08-.49-.07-.49-.06-.47-.06-.48-.05-.48-.04-.49-.04-.52-.03-.54-.04-.57-.03-.62-.02-.67-.03-.72-.02-.79-.02-.85-.03-.93-.02-.66-.01-.65-.01-.66-.01h-2l-.67.01-.68.01-.68.02-.68.02-.69.02-.69.02-.7.04-.7.03-.7.04-.71.04-.71.04-.71.05-.72.06-.72.05-.72.06v-4.96l7.7-.49.98-.02.96-.02h2.76l.88.01z" id="d"/>
    <path d="M325.52 384.29l.78.01.78.01.78.02.76.02.76.02.75.03.74.04.73.03.73.04.72.05.71.04.7.05.69.06.69.06.68.06.67.07.67.07.66.07.65.08.64.08.63.09.63.09.62.09.61.1.6.1.59.1.59.11.58.11.58.12.56.11.56.13.55.12.54.14.53.13.53.14.52.1.51.1.5.11.5.1.5.11.48.11.49.11.47.11.47.11.46.11.46.12.45.11.44.12.44.12.43.12.43.12.42.13.41.12.41.13.4.12.39.13.39.13.39.13.37.14.37.13.37.14.36.13.35.14.34.14.34.14.34.14.32.15.33.14.31.15.31.15.3.15.3.15.29.15.28.15.28.16.27.15.27.16.26.16.26.17.25.16.25.17.24.17.23.18.23.17.22.18.22.18.22.19.2.18.21.19.19.19.19.2.19.19.18.2.17.2.17.21.17.2.16.21.15.21.15.21.14.22.14.22.13.22.13.22.12.22.11.23.11.23.11.24.1.23.09.24.09.24.08.24.08.25.07.24.07.25.06.26.11.41.1.41.1.41.08.4.08.41.06.4.06.4.05.39.04.4.04.39.02.39.02.39v.77l-.01.38-.02.37-.03.38-.03.37-.05.38-.05.37-.07.36-.07.37-.08.36-.09.36-.09.36-.11.36-.11.35-.13.35-.13.35-.14.35-.15.34-.15.34-.17.34-.18.34-.18.34-.19.33-.2.33-.21.33-.22.33-.23.32-.35.48-.38.47-.4.46-.42.45-.43.43-.45.43-.47.42-.48.41-.49.4-.51.39-.52.38-.53.37-.54.37-.55.35-.55.35-.57.33-.57.33-.57.32-.58.32-.59.3-.58.3-.59.28-.59.29-.58.27-.59.26-.58.26-.58.26-.58.24-.57.24-.56.23-.56.22-.54.22-.54.21-.53.21-.52.2-.5.19-.5.19-.48.18-.46.18-.45.17-.3.12-.33.12-.35.12-.38.13-.4.13-.43.14-.45.14-.47.14-.5.15-.52.15-.55.16-.57.16-.6.17-.62.17-.64.17-.67.18-.69.18-.71.19-.74.19-.77.2-.78.2-.82.2-.83.21-.86.21-.89.22-.91.22-.93.22-.96.23-.98.24-1 .24-1.03.24-1.06.25-1.08.25-1.1.25-1.12.26-1.16.26-1.17.27-1.2.27-1.22.28-1.25.28-.93.13-.92.12-.92.11-.92.12-.91.11-.9.1-.9.11-.9.1-.89.09-.89.1-.88.08-.88.09-.87.08-.87.08-.87.08-.86.07-.85.07-.85.06-.85.07-.84.05-.83.06-.83.05-.83.05-.82.04-.82.04-.81.04-.81.03-.8.04-.8.02-.8.03-.78.02-.79.01-.78.02-.77.01h-.78l-.76.01h-.76l-.76-.01-.75-.01-.75-.01-.74-.01-.75-.02-.74-.02-.74-.03-.75-.02-.74-.03-.74-.04-.74-.04-.74-.04-.74-.05-.74-.05-.74-.05-.74-.05-.74-.06-.74-.07-.74-.06-.73-.07-.74-.07-.74-.08-.73-.08-.74-.08-.73-.09-.73-.09-.74-.1-.73-.09-.73-.1-.73-.11-.74-.11-.73-.11-.73-.11-.73-.12-.73-.12-.73-.13-.72-.13-.73-.13-.73-.13-.73-.14-.72-.14-.73-.15-.73-.15-.41-.1-.41-.1-.4-.11-.39-.11-.39-.12-.38-.12-.37-.13-.37-.13-.36-.14-.35-.14-.35-.14-.34-.15-.34-.15-.32-.16-.33-.16-.31-.17-.31-.17-.3-.18-.29-.18-.29-.18-.28-.19-.28-.2-.26-.2-.27-.2-.25-.21-.25-.21-.24-.22-.24-.22-.22-.23-.23-.23-.21-.23-.21-.24-.2-.24-.2-.25-.18-.26-.19-.25-.17-.27-.17-.26-.16-.27-.16-.28-.15-.28-.14-.28-.13-.29-.13-.3-.13-.3-.11-.3-.11-.31-.1-.31-.1-.31-.09-.33-.08-.32-.08-.33-.07-.34-.06-.33-.05-.35-.05-.35-.05-.35-.03-.36-.03-.36-.03-.36-.01-.37-.01-.38-.01-.38.01-.38.01-.39.01-.4.03-.39.03-.41.03-.4.05-.41.05-.42.05-.42.07-.43.07-.42.07-.44.09-.44.09-.44.09-.45.1-.45.11-.46.15-.36.15-.36.16-.35.16-.36.18-.36.18-.35.2-.35.2-.36.21-.35.21-.35.23-.34.23-.35.25-.35.25-.34.25-.35.27-.34.28-.34.28-.34.29-.34.3-.33.31-.34.32-.34.32-.33.34-.33.34-.33.35-.33.35-.33.37-.33.38-.32.38-.33.39-.32.4-.33.41-.32.41-.32.43-.32.43-.31.44-.32.45-.32.46-.31.46-.31.48-.31.48-.31.5-.3.51-.3.51-.3.53-.3.54-.29.55-.28.55-.29.57-.28.58-.28.59-.27.6-.27.61-.27.62-.26.63-.26.64-.26.65-.26.66-.25.68-.24.68-.25.69-.24.7-.24.72-.23.72-.23.74-.23.74-.22.75-.23.77-.21.78-.22.78-.21.8-.21.8-.2.82-.2.83-.2.84-.2.85-.19.85-.18.87-.19.88-.18 1.19-.2 1.17-.2 1.17-.2 1.16-.18 1.15-.19 1.14-.18 1.13-.17 1.13-.17 1.11-.16 1.11-.16 1.09-.16 1.09-.15 1.08-.14 1.07-.14 1.05-.14 1.06-.13 1.04-.12 1.03-.12 1.02-.12 1.02-.11 1-.11 1-.1.99-.09.98-.09.97-.09.96-.08.95-.08.94-.07.93-.07.93-.06.91-.06.91-.05.9-.05.89-.04.87-.04.87-.03.87-.03.85-.02.84-.02.84-.01.82-.01.82-.01h1.61l.8.01zm-5.02 6.78h-.7l-.72.01-.72.02-.72.01-.74.03-.74.02-.75.03-.76.03-.76.04-.78.03-.78.05-.79.04-.79.05-.81.06-.81.05-.82.06-.83.07-.83.07-.85.07-.85.07-.85.08-.87.09-.87.08-.88.09-.89.09-.9.1-.9.1-.92.11-.92.1-.92.12-.94.11-.94.12-.95.12-.96.13-.97.13-.97.13-.98.14-.99.14-1 .14-1 .15-1.01.15-.75.14-.75.13-.73.14-.72.15-.72.14-.7.15-.7.15-.69.15-.68.16-.67.15-.66.16-.65.17-.65.16-.63.17-.63.17-.62.17-.61.17-.6.18-.59.18-.58.18-.57.19-.57.18-.55.19-.55.2-.54.19-.53.2-.52.2-.51.2-.5.2-.5.21-.48.21-.48.21-.47.21-.45.22-.45.22-.44.22-.44.22-.42.23-.41.23-.41.23-.4.23-.39.24-.38.23-.38.24-.37.23-.36.24-.35.24-.35.24-.34.24-.34.24-.32.24-.32.25-.32.24-.3.25-.3.24-.29.25-.29.25-.27.24-.27.25-.27.25-.25.26-.25.25-.24.25-.24.25-.23.26-.22.26-.21.25-.21.26-.2.26-.19.26-.19.26-.17.26-.17.26-.17.27-.16.26-.15.26-.14.27-.13.27-.13.26-.13.27-.09.34-.09.34-.08.33-.08.33-.07.33-.06.32-.06.32-.05.32-.05.31-.04.31-.04.31-.03.3-.03.3-.02.3-.01.29-.01.29V417.27l.01.28.01.28.02.27.03.27.03.26.03.27.05.26.04.25.06.26.06.24.06.25.07.24.08.24.08.24.09.23.09.23.1.22.1.23.11.22.12.21.12.21.13.21.13.21.14.2.14.2.15.19.16.2.16.18.16.19.18.18.17.18.19.17.19.18.19.16.2.17.21.16.21.16.22.15.22.16.23.14.23.15.24.14.25.14.25.13.26.13.26.13.27.13.27.12.28.12.29.11.29.11.29.11.31.1.3.1.32.1.32.1.32.09.33.08.34.09.34.08.35.08.35.07.62.11.62.11.62.11.62.1.62.1.62.1.62.1.63.09.62.09.62.09.62.08.63.08.62.09.63.07.62.08.63.07.62.07.63.07.63.06.62.06.63.06.63.06.63.06.63.05.63.05.63.04.63.05.63.04.63.04.63.04.63.03.63.03.64.03.63.03.63.02.64.02.63.02.64.01.63.02.64.01.93.01.9.01.87.01.83.01.8.01.78.01h2.86l.66-.01.65-.01.63-.01.62-.01.61-.02.61-.02.59-.03.59-.02.59-.04.58-.03.59-.04.59-.05.59-.05.61-.05.61-.06.62-.06.63-.07.65-.07.66-.08.69-.08.7-.09.73-.1.75-.1.77-.11.81-.11.83-.12.87-.13.9-.13.94-.14.97-.15.66-.1.66-.1.66-.11.65-.11.65-.11.65-.11.65-.12.65-.11.64-.12.64-.13.64-.12.63-.13.64-.12.63-.14.63-.13.62-.13.63-.14.62-.14.62-.14.62-.15.61-.15.62-.14.61-.16.61-.15.6-.16.61-.15.6-.16.6-.17.59-.16.6-.17.59-.17.59-.17.59-.17.58-.18.59-.18.58-.18.57-.18.58-.19.57-.19.58-.19.7-.22.69-.23.68-.22.67-.23.66-.23.64-.22.64-.23.63-.23.61-.23.6-.23.6-.23.58-.23.57-.23.56-.24.55-.23.54-.23.53-.24.52-.23.5-.24.5-.23.48-.24.48-.23.46-.24.45-.24.44-.24.44-.24.42-.23.4-.24.4-.24.39-.25.38-.24.36-.24.36-.24.34-.25.33-.24.33-.24.31-.25.3-.24.29-.25.28-.25.26-.24.26-.25.25-.25.24-.26.22-.25.22-.25.21-.26.19-.26.19-.26.18-.26.16-.27.16-.26.14-.27.14-.27.12-.27.12-.27.1-.27.1-.28.08-.27.07-.28.07-.28.05-.28.04-.29.04-.28.02-.29.01-.28v-.29l-.01-.29-.01-.3-.03-.29-.04-.3-.05-.29-.06-.3-.07-.3-.08-.31-.09-.3-.1-.31-.11-.3-.12-.31-.14-.31-.08-.16-.1-.16-.1-.16-.1-.15-.1-.16-.11-.15-.11-.16-.12-.15-.11-.15-.13-.15-.12-.15-.13-.14-.14-.15-.13-.14-.15-.15-.14-.14-.15-.14-.15-.14-.16-.14-.16-.14-.16-.14-.17-.14-.17-.13-.17-.14-.18-.13-.18-.13-.19-.13-.18-.13-.2-.13-.19-.13-.2-.12-.21-.13-.2-.12-.21-.13-.22-.12-.22-.12-.22-.12-.23-.12-.22-.11-.24-.12-.23-.12-.25-.11-.25-.11-.25-.12-.26-.11-.26-.11-.27-.11-.27-.1-.28-.11-.29-.11-.29-.1-.29-.11-.3-.1-.31-.1-.31-.1-.32-.1-.32-.1-.32-.1-.34-.1-.33-.09-.35-.1-.34-.09-.36-.09-.35-.09-.37-.1-.37-.09-.37-.08-.38-.09-.38-.09-.39-.08-.4-.09-.4-.08-.4-.08-.41-.09-.42-.08-.42-.08-.43-.07-.43-.08-.43-.08-.45-.07-.45-.11-.45-.1-.46-.09-.47-.1-.48-.09-.48-.09-.49-.09-.49-.08-.5-.08-.51-.08-.52-.07-.52-.07-.53-.07-.53-.07-.54-.06-.55-.06-.55-.06-.56-.06-.57-.05-.57-.05-.59-.05-.58-.04-.6-.04-.6-.04-.6-.03-.61-.04-.62-.03-.63-.02-.63-.03-.64-.02-.65-.02-.65-.01-.66-.02-.66-.01h-.68l-.67-.01h-1.38l-.7.01z" id="e"/>
    <path d="M300.2 399.73c2.16-14.26 3.15-27.79 2.96-40.62-.19-12.83-1.18-25.42-2.96-37.79-1.08-11.98-3.62-26.88-7.62-44.7-3.99-17.82-9.52-38.56-16.59-62.21a966.72 966.72 0 0 0-8.9-27.14c-3-8.68-6.02-16.99-9.07-24.94 16.9 4.41 32.57 8.3 47.01 11.68 21.66 5.06 18.89 4.87 39.63 9.21 20.74 4.34 16.74 4.27 33.79 6.76 17.05 2.5 22.89 2.77 34.41 3.23 11.52.46 11.41.46 21.2 0 6.53-.31 8.87.9 7.03 3.63l-28.23 23.33-24.88 15.61c-9.07 5.04-18.44 9.86-28.11 14.45-14.52 6.9-15.56 6.67-31 13.14-10.29 4.31-19.85 8.54-28.67 12.69l6.35 45.26c1.87 12.08 2.94 24.53 3.22 37.35.43 19.24-.78 22.22-2.3 39.61-1 11.59-2.25 22.62-3.75 33.08h-8.76l5.24-31.63z" id="f"/>
    <path d="M283.89 213.85c4.35 14.52 9.35 32.42 14.99 53.72l47-17.11c16.04-6.34 31.07-13.68 45.08-22.03 14.01-8.34 26.88-17.7 38.61-28.05-9.16.29-22.9-.74-41.23-3.09-27.49-3.52-38.42-5.82-68.34-12.17-19.95-4.23-36.66-8.25-50.15-12.06 5.01 12.67 9.69 26.27 14.04 40.79z" id="g"/>
  </defs>
  <use xlink:href="#a" fill="#fff"/>
  <use xlink:href="#b" fill="#960"/>
  <use xlink:href="#c" fill="#960"/>
  <use xlink:href="#d"/>
  <use xlink:href="#e"/>
  <use xlink:href="#f"/>
  <use xlink:href="#g" fill="#00ff09"/>
</svg>
