<svg width="278" height="277" xmlns="http://www.w3.org/2000/svg" xmlns:xlink="http://www.w3.org/1999/xlink">
  <defs>
    <path d="M150.733 21.466l120.584 241.167c2.964 5.928.56 13.136-5.367 16.1a12 12 0 0 1-5.366 1.267H19.416c-6.627 0-12-5.373-12-12a12 12 0 0 1 1.267-5.367L129.267 21.466c2.964-5.927 10.172-8.33 16.1-5.366a12 12 0 0 1 5.366 5.366z" id="a"/>
    <filter x="-1.1%" y="1.5%" width="102.2%" height="102.2%" filterUnits="objectBoundingBox" id="b">
      <feMorphology radius="6" in="SourceAlpha" result="shadowSpreadInner1"/>
      <feGaussianBlur stdDeviation="1.5" in="shadowSpreadInner1" result="shadowBlurInner1"/>
      <feOffset dy="1" in="shadowBlurInner1" result="shadowOffsetInner1"/>
      <feComposite in="shadowOffsetInner1" in2="SourceAlpha" operator="arithmetic" k2="-1" k3="1" result="shadowInnerInner1"/>
      <feColorMatrix values="0 0 0 0 0 0 0 0 0 0 0 0 0 0 0 0 0 0 0.5 0" in="shadowInnerInner1"/>
    </filter>
    <text id="d" font-family="Kanit-ExtraBold, Kanit" font-size="32" font-weight="600" fill="#2C2C2C" fill-opacity=".995">
      <tspan x="53.028" y="35">Out</tspan>
    </text>
    <filter x="-12.7%" y="-10.4%" width="125.5%" height="129.2%" filterUnits="objectBoundingBox" id="c">
      <feOffset dy="2" in="SourceAlpha" result="shadowOffsetOuter1"/>
      <feGaussianBlur stdDeviation="2" in="shadowOffsetOuter1" result="shadowBlurOuter1"/>
      <feColorMatrix values="0 0 0 0 0 0 0 0 0 0 0 0 0 0 0 0 0 0 0.5 0" in="shadowBlurOuter1"/>
    </filter>
    <text id="f" font-family="Kanit-ExtraBold, Kanit" font-size="32" font-weight="600" fill="#2C2C2C" fill-opacity=".995">
      <tspan x=".244" y="91">Of Bounds</tspan>
    </text>
    <filter x="-4.3%" y="-10.4%" width="108.7%" height="129.2%" filterUnits="objectBoundingBox" id="e">
      <feOffset dy="2" in="SourceAlpha" result="shadowOffsetOuter1"/>
      <feGaussianBlur stdDeviation="2" in="shadowOffsetOuter1" result="shadowBlurOuter1"/>
      <feColorMatrix values="0 0 0 0 0 0 0 0 0 0 0 0 0 0 0 0 0 0 0.5 0" in="shadowBlurOuter1"/>
    </filter>
  </defs>
  <g fill="none" fill-rule="evenodd">
    <g stroke-linejoin="round" transform="translate(-1 -9)">
      <use fill="#FFF233" xlink:href="#a"/>
      <use fill="#000" filter="url(#b)" xlink:href="#a"/>
      <use stroke="#000" stroke-width="11" xlink:href="#a"/>
    </g>
    <g fill="#2C2C2C" fill-opacity=".995">
      <g transform="translate(59 107)">
        <use filter="url(#c)" xlink:href="#d"/>
        <use xlink:href="#d"/>
      </g>
      <g transform="translate(59 107)">
        <use filter="url(#e)" xlink:href="#f"/>
        <use xlink:href="#f"/>
      </g>
    </g>
  </g>
</svg>
