<?xml version="1.0" encoding="UTF-8"?>
<svg width="182px" height="132px" viewBox="0 0 182 132" version="1.1" xmlns="http://www.w3.org/2000/svg" xmlns:xlink="http://www.w3.org/1999/xlink">
    <!-- Generator: Sketch 49.3 (51167) - http://www.bohemiancoding.com/sketch -->
    <title>golf logo</title>
    <desc>Created with Sketch.</desc>
    <defs>
        <linearGradient x1="50%" y1="0%" x2="50%" y2="100%" id="linearGradient-1">
            <stop stop-color="#B4EC51" offset="0%"></stop>
            <stop stop-color="#429321" offset="100%"></stop>
        </linearGradient>
    </defs>
    <g id="Page-1" stroke="none" stroke-width="1" fill="none" fill-rule="evenodd">
        <g id="golf-logo" transform="translate(0.000000, 1.000000)">
            <path d="M104.300266,130.578955 C47.9667336,130.578955 0,111.94393 0,93.0930162 C0,79.7033095 15.5667305,70.2909998 50.5413264,68.1419477 C64.8062785,67.2654222 88.3914793,76.3632332 98.6143731,80.700871 C117.617219,88.7638975 118.594938,87.8423759 142.851807,93.0930162 C159.023053,96.5934431 169.638088,100.076248 174.69691,103.541431 C180.290198,107.961796 182.670647,111.753892 181.838257,114.91772 C180.58967,119.663461 160.633799,130.578955 104.300266,130.578955 Z M73.4787418,109.668368 C78.7371875,109.668368 83,108.241639 83,106.481679 C83,104.721719 78.7371875,103.29499 73.4787418,103.29499 C68.2202961,103.29499 63.9574837,104.721719 63.9574837,106.481679 C63.9574837,108.241639 68.2202961,109.668368 73.4787418,109.668368 Z" id="green" fill="url(#linearGradient-1)"></path>
            <g id="Flag" transform="translate(65.000000, 0.000000)" stroke="#717171">
                <path d="M35.9996866,17.2991551 C35.9501485,18.4915015 16.2832517,22.8292285 11.0199817,24.5888073 C7.51113494,25.7618598 4.17114105,27.2322574 1,29 C1.60649571,23.8876962 2.26621633,19.0691776 2.97916184,14.5444442 C3.69210736,10.0197108 4.50300558,5.50489606 5.41185651,1 C9.74795792,5.16040796 14.9670123,8.86638212 21.0690196,12.1179225 C30.2220306,16.995233 36.0492247,16.1068088 35.9996866,17.2991551 Z" id="Triangle" fill="#CE1F1F" transform="translate(18.500000, 15.000000) rotate(-3.000000) translate(-18.500000, -15.000000) "></path>
                <path d="M8,107 C2.66666667,86.4613073 5.29704261e-16,68.0412867 0,51.7399383 C0,46.4342163 0.142351595,40.9515183 0.427054786,35.2918444 C0.820402433,27.4724047 2.21633236,16.0417899 4.61484456,1" id="Line" stroke-width="3" stroke-linecap="square"></path>
            </g>
        </g>
    </g>
</svg>